<svg width="32" height="32" viewBox="0 0 32 32" fill="none" xmlns="http://www.w3.org/2000/svg">
<path d="M26.6666 13.3332C26.6666 19.9905 19.2813 26.9238 16.8013 29.0652C16.5702 29.2389 16.289 29.3328 15.9999 29.3328C15.7109 29.3328 15.4296 29.2389 15.1986 29.0652C12.7186 26.9238 5.33325 19.9905 5.33325 13.3332C5.33325 10.5042 6.45706 7.79109 8.45745 5.7907C10.4578 3.79031 13.1709 2.6665 15.9999 2.6665C18.8289 2.6665 21.542 3.79031 23.5424 5.7907C25.5428 7.79109 26.6666 10.5042 26.6666 13.3332Z" fill="#439DEC"/>
<path d="M15.9999 17.3332C18.2091 17.3332 19.9999 15.5423 19.9999 13.3332C19.9999 11.124 18.2091 9.33317 15.9999 9.33317C13.7908 9.33317 11.9999 11.124 11.9999 13.3332C11.9999 15.5423 13.7908 17.3332 15.9999 17.3332Z" fill="#439DEC"/>
<path d="M26.6666 13.3332C26.6666 19.9905 19.2813 26.9238 16.8013 29.0652C16.5702 29.2389 16.289 29.3328 15.9999 29.3328C15.7109 29.3328 15.4296 29.2389 15.1986 29.0652C12.7186 26.9238 5.33325 19.9905 5.33325 13.3332C5.33325 10.5042 6.45706 7.79109 8.45745 5.7907C10.4578 3.79031 13.1709 2.6665 15.9999 2.6665C18.8289 2.6665 21.542 3.79031 23.5424 5.7907C25.5428 7.79109 26.6666 10.5042 26.6666 13.3332Z" stroke="#222222" stroke-width="2" stroke-linecap="round" stroke-linejoin="round"/>
<path d="M15.9999 17.3332C18.2091 17.3332 19.9999 15.5423 19.9999 13.3332C19.9999 11.124 18.2091 9.33317 15.9999 9.33317C13.7908 9.33317 11.9999 11.124 11.9999 13.3332C11.9999 15.5423 13.7908 17.3332 15.9999 17.3332Z" stroke="#222222" stroke-width="2" stroke-linecap="round" stroke-linejoin="round"/>
</svg>
