<svg width="25" height="19" viewBox="0 0 25 19" fill="none" xmlns="http://www.w3.org/2000/svg">
<path d="M15.9662 4.5C13.0421 4.5 12 6.88655 12 8.36555C12 9.74398 12.7669 12.5 15.9662 12.5C19.1655 12.5 19.9759 9.81092 19.9996 8.36555C20.0233 6.92017 18.8903 4.5 15.9662 4.5Z" fill="#F7A531"/>
<path d="M19.7767 4.56579L21.4011 2.9678M10.1523 14.0781L11.7361 12.4404M20.0204 12.4404L21.7259 14.1917M10.193 2.80859L11.9798 4.55984" stroke="#F7A531" stroke-linecap="round"/>
<path d="M15.9594 2.96767V0.5M15.9594 16.5V14.0323M21.6447 8.34081H24M8 8.3408L10.3553 8.34081" stroke="#F7A531" stroke-linecap="round"/>
<path d="M15.9745 18.8594H2.86401C-2.01815 17.7817 -0.202846 10.1922 4.88101 11.4748C5.88958 3.88543 17.5882 5.52627 15.9745 12.7055C20.0085 12.7055 20.0085 18.8594 15.9745 18.8594Z" fill="#B7C3D0"/>
</svg>
